<svg xmlns="http://www.w3.org/2000/svg" viewBox="0 0 1040 374" font-family="'JetBrains Mono', 'Fira Code', Menlo, Consolas, monospace">
<defs>
  <pattern id="grid" width="40" height="40" patternUnits="userSpaceOnUse">
    <path d="M 40 0 L 0 0 0 40" fill="none" stroke="#1e293b" stroke-width="0.5"/>
  </pattern>
  <marker id="arrowhead" markerWidth="9" markerHeight="6" refX="8" refY="3" orient="auto">
    <polygon points="0 0, 9 3, 0 6" fill="#64748b"/>
  </marker>
  <filter id="focus-glow" x="-50%" y="-50%" width="200%" height="200%">
    <feGaussianBlur in="SourceAlpha" stdDeviation="6"/>
    <feFlood flood-color="#34d399" flood-opacity="0.6"/>
    <feComposite in2="SourceAlpha" operator="in"/>
    <feMerge>
      <feMergeNode/>
      <feMergeNode in="SourceGraphic"/>
    </feMerge>
  </filter>
</defs>
<rect width="1040" height="374" fill="#020617"/>
<rect width="1040" height="374" fill="url(#grid)"/>
<text x="240" y="36" fill="#94a3b8" font-size="10" font-weight="600" text-anchor="middle" letter-spacing="0.08em">Upstream (calls)</text>
<text x="520" y="36" fill="#94a3b8" font-size="10" font-weight="600" text-anchor="middle" letter-spacing="0.08em">Focus</text>
<text x="800" y="36" fill="#94a3b8" font-size="10" font-weight="600" text-anchor="middle" letter-spacing="0.08em">Downstream (consumers)</text>
<line x1="360" y1="80" x2="420" y2="195" stroke="#64748b" stroke-width="1.5" marker-end="url(#arrowhead)"/>
<line x1="420" y1="201" x2="360" y2="86" stroke="#64748b" stroke-width="1.5" marker-end="url(#arrowhead)"/>
<text x="390" y="133" fill="#94a3b8" font-size="9" text-anchor="middle">two-way</text>
<line x1="360" y1="148" x2="420" y2="195" stroke="#64748b" stroke-width="1.5" marker-end="url(#arrowhead)"/>
<line x1="360" y1="242" x2="420" y2="195" stroke="#64748b" stroke-width="1.5" marker-end="url(#arrowhead)"/>
<line x1="620" y1="195" x2="680" y2="80" stroke="#64748b" stroke-width="1.5" marker-end="url(#arrowhead)"/>
<line x1="620" y1="195" x2="680" y2="148" stroke="#64748b" stroke-width="1.5" marker-end="url(#arrowhead)"/>
<line x1="620" y1="195" x2="680" y2="216" stroke="#64748b" stroke-width="1.5" marker-end="url(#arrowhead)"/>
<line x1="620" y1="195" x2="680" y2="284" stroke="#64748b" stroke-width="1.5" marker-end="url(#arrowhead)"/>
<g>
<g class="cluster">
  <rect x="120" y="64" width="240" height="58" rx="8"
        fill="rgba(30,41,59,0.35)"
        stroke="#fbbf24" stroke-width="1" stroke-dasharray="4,4" stroke-opacity="0.4"/>
  <text x="130" y="78" fill="#fbbf24" font-size="9" font-weight="700"
        text-anchor="start" style="letter-spacing:0.06em;text-transform:uppercase;">llm</text>
  <text x="350" y="78" fill="#fbbf24" font-size="9" font-weight="600"
        text-anchor="end">1</text>
</g>

<g><rect x="128" y="88" width="108" height="22" rx="4" fill="#0f172a"/><rect x="128" y="88" width="108" height="22" rx="4" fill="rgba(120, 53, 15, 0.3)" stroke="#fbbf24" stroke-width="1"/><text x="182" y="103" fill="white" font-size="10" text-anchor="middle">litellm</text></g>
<g class="cluster">
  <rect x="120" y="132" width="240" height="84" rx="8"
        fill="rgba(30,41,59,0.35)"
        stroke="#fb923c" stroke-width="1" stroke-dasharray="4,4" stroke-opacity="0.4"/>
  <text x="130" y="146" fill="#fb923c" font-size="9" font-weight="700"
        text-anchor="start" style="letter-spacing:0.06em;text-transform:uppercase;">media</text>
  <text x="350" y="146" fill="#fb923c" font-size="9" font-weight="600"
        text-anchor="end">4</text>
</g>

<g><rect x="128" y="156" width="108" height="22" rx="4" fill="#0f172a"/><rect x="128" y="156" width="108" height="22" rx="4" fill="rgba(251, 146, 60, 0.3)" stroke="#fb923c" stroke-width="1"/><text x="182" y="171" fill="white" font-size="10" text-anchor="middle">comfyui</text></g>
<g><rect x="240" y="156" width="108" height="22" rx="4" fill="#0f172a"/><rect x="240" y="156" width="108" height="22" rx="4" fill="rgba(251, 146, 60, 0.3)" stroke="#fb923c" stroke-width="1"/><text x="294" y="171" fill="white" font-size="10" text-anchor="middle">searxng</text></g>
<g><rect x="128" y="182" width="108" height="22" rx="4" fill="#0f172a"/><rect x="128" y="182" width="108" height="22" rx="4" fill="rgba(251, 146, 60, 0.3)" stroke="#fb923c" stroke-width="1"/><text x="182" y="197" fill="white" font-size="10" text-anchor="middle">stt-provider</text></g>
<g><rect x="240" y="182" width="108" height="22" rx="4" fill="#0f172a"/><rect x="240" y="182" width="108" height="22" rx="4" fill="rgba(251, 146, 60, 0.3)" stroke="#fb923c" stroke-width="1"/><text x="294" y="197" fill="white" font-size="10" text-anchor="middle">tts-provider</text></g>
<g class="cluster">
  <rect x="120" y="226" width="240" height="58" rx="8"
        fill="rgba(30,41,59,0.35)"
        stroke="#34d399" stroke-width="1" stroke-dasharray="4,4" stroke-opacity="0.4"/>
  <text x="130" y="240" fill="#34d399" font-size="9" font-weight="700"
        text-anchor="start" style="letter-spacing:0.06em;text-transform:uppercase;">agents</text>
  <text x="350" y="240" fill="#34d399" font-size="9" font-weight="600"
        text-anchor="end">2</text>
</g>

<g><rect x="128" y="250" width="108" height="22" rx="4" fill="#0f172a"/><rect x="128" y="250" width="108" height="22" rx="4" fill="rgba(6, 78, 59, 0.4)" stroke="#34d399" stroke-width="1"/><text x="182" y="265" fill="white" font-size="10" text-anchor="middle">airflow</text></g>
<g><rect x="240" y="250" width="108" height="22" rx="4" fill="#0f172a"/><rect x="240" y="250" width="108" height="22" rx="4" fill="rgba(6, 78, 59, 0.4)" stroke="#34d399" stroke-width="1"/><text x="294" y="265" fill="white" font-size="10" text-anchor="middle">lightrag</text></g>
</g>
<g>
<g class="cluster">
  <rect x="680" y="64" width="240" height="58" rx="8"
        fill="rgba(30,41,59,0.35)"
        stroke="#fb7185" stroke-width="1" stroke-dasharray="4,4" stroke-opacity="0.4"/>
  <text x="690" y="78" fill="#fb7185" font-size="9" font-weight="700"
        text-anchor="start" style="letter-spacing:0.06em;text-transform:uppercase;">infra</text>
  <text x="910" y="78" fill="#fb7185" font-size="9" font-weight="600"
        text-anchor="end">1</text>
</g>

<g><rect x="688" y="88" width="108" height="22" rx="4" fill="#0f172a"/><rect x="688" y="88" width="108" height="22" rx="4" fill="rgba(136, 19, 55, 0.4)" stroke="#fb7185" stroke-width="1"/><text x="742" y="103" fill="white" font-size="10" text-anchor="middle">kong</text></g>
<g class="cluster">
  <rect x="680" y="132" width="240" height="58" rx="8"
        fill="rgba(30,41,59,0.35)"
        stroke="#fbbf24" stroke-width="1" stroke-dasharray="4,4" stroke-opacity="0.4"/>
  <text x="690" y="146" fill="#fbbf24" font-size="9" font-weight="700"
        text-anchor="start" style="letter-spacing:0.06em;text-transform:uppercase;">llm</text>
  <text x="910" y="146" fill="#fbbf24" font-size="9" font-weight="600"
        text-anchor="end">1</text>
</g>

<g><rect x="688" y="156" width="108" height="22" rx="4" fill="#0f172a"/><rect x="688" y="156" width="108" height="22" rx="4" fill="rgba(120, 53, 15, 0.3)" stroke="#fbbf24" stroke-width="1"/><text x="742" y="171" fill="white" font-size="10" text-anchor="middle">litellm</text></g>
<g class="cluster">
  <rect x="680" y="200" width="240" height="58" rx="8"
        fill="rgba(30,41,59,0.35)"
        stroke="#34d399" stroke-width="1" stroke-dasharray="4,4" stroke-opacity="0.4"/>
  <text x="690" y="214" fill="#34d399" font-size="9" font-weight="700"
        text-anchor="start" style="letter-spacing:0.06em;text-transform:uppercase;">agents</text>
  <text x="910" y="214" fill="#34d399" font-size="9" font-weight="600"
        text-anchor="end">1</text>
</g>

<g><rect x="688" y="224" width="108" height="22" rx="4" fill="#0f172a"/><rect x="688" y="224" width="108" height="22" rx="4" fill="rgba(6, 78, 59, 0.4)" stroke="#34d399" stroke-width="1"/><text x="742" y="239" fill="white" font-size="10" text-anchor="middle">n8n</text></g>
<g class="cluster">
  <rect x="680" y="268" width="240" height="58" rx="8"
        fill="rgba(30,41,59,0.35)"
        stroke="#22d3ee" stroke-width="1" stroke-dasharray="4,4" stroke-opacity="0.4"/>
  <text x="690" y="282" fill="#22d3ee" font-size="9" font-weight="700"
        text-anchor="start" style="letter-spacing:0.06em;text-transform:uppercase;">apps</text>
  <text x="910" y="282" fill="#22d3ee" font-size="9" font-weight="600"
        text-anchor="end">1</text>
</g>

<g><rect x="688" y="292" width="108" height="22" rx="4" fill="#0f172a"/><rect x="688" y="292" width="108" height="22" rx="4" fill="rgba(8, 51, 68, 0.4)" stroke="#22d3ee" stroke-width="1"/><text x="742" y="307" fill="white" font-size="10" text-anchor="middle">jupyterhub</text></g>
</g>
<g class="focus" filter="url(#focus-glow)">  <rect x="420" y="160" width="200" height="70" rx="8" fill="#0f172a"/>  <rect x="420" y="160" width="200" height="70" rx="8"         fill="rgba(6, 78, 59, 0.4)" stroke="#34d399" stroke-width="1.5"/>  <text x="520" y="188" fill="white" font-size="15" font-weight="700"         text-anchor="middle">HERMES</text>  <text x="520" y="208" fill="#94a3b8" font-size="10"         text-anchor="middle">agents · container</text></g>
<g class="legend"><line x1="220" y1="332" x2="820" y2="332" stroke="#1e293b" stroke-width="1"/>
<circle cx="286" cy="344" r="4" fill="#fb7185"/>
<text x="296" y="347" fill="#94a3b8" font-size="9" font-weight="400" text-anchor="start">infra</text>
<circle cx="366" cy="344" r="4" fill="#a78bfa"/>
<text x="376" y="347" fill="#94a3b8" font-size="9" font-weight="400" text-anchor="start">data</text>
<circle cx="446" cy="344" r="4" fill="#fbbf24"/>
<text x="456" y="347" fill="#94a3b8" font-size="9" font-weight="400" text-anchor="start">llm</text>
<circle cx="526" cy="344" r="4" fill="#fb923c"/>
<text x="536" y="347" fill="#94a3b8" font-size="9" font-weight="400" text-anchor="start">media</text>
<circle cx="606" cy="344" r="4" fill="#34d399"/>
<text x="616" y="347" fill="#94a3b8" font-size="9" font-weight="400" text-anchor="start">agents</text>
<circle cx="686" cy="344" r="4" fill="#22d3ee"/>
<text x="696" y="347" fill="#94a3b8" font-size="9" font-weight="400" text-anchor="start">apps</text>
</g>
</svg>